<?xml version="1.0" encoding="UTF-8" standalone="no"?>
<!DOCTYPE svg PUBLIC "-//W3C//DTD SVG 1.1//EN" "http://www.w3.org/Graphics/SVG/1.1/DTD/svg11.dtd">
<svg width="100%" height="100%" viewBox="0 0 2048 1536" version="1.1" xmlns="http://www.w3.org/2000/svg" xmlns:xlink="http://www.w3.org/1999/xlink" xml:space="preserve" xmlns:serif="http://www.serif.com/" style="fill-rule:evenodd;clip-rule:evenodd;stroke-linejoin:round;stroke-miterlimit:2;">
    <g id="footerResponsive.svg" transform="matrix(1.56937,0,0,1.56937,1030.92,821.023)">
        <g transform="matrix(1,0,0,1,-659.5,-520)">
            <g id="Artboard1" transform="matrix(0.87201,0,0,1.15529,146.498,110.908)">
                <rect x="-168" y="-96" width="1512" height="900" style="fill:none;"/>
                <g>
                    <clipPath id="_clip1">
                        <rect x="-168" y="-96" width="1512" height="900"/>
                    </clipPath>
                    <g clip-path="url(#_clip1)">
                        <g transform="matrix(6.63543,0,0,4.3192,-182.919,-2428.37)">
                            <g>
                                <clipPath id="_clip2">
                                    <rect x="-0.461" y="539.2" width="230.259" height="210.4"/>
                                </clipPath>
                                <g clip-path="url(#_clip2)">
                                    <g transform="matrix(0.512745,0,0,0.512745,-0.0004,540)">
                                        <g id="Vector.svg">
                                            <g>
                                                <path d="M0,0L48,0C96,0 192,0 288,45.333C384,90.667 480,181.333 576,241.778C672,302.222 768,332.444 864,340C960,347.556 1056,332.444 1152,294.667C1248,256.889 1344,196.444 1392,166.222L1440,136L1440,408L0,408L0,0Z" style="fill:rgb(31,32,42);"/>
                                            </g>
                                        </g>
                                    </g>
                                </g>
                            </g>
                        </g>
                    </g>
                </g>
            </g>
        </g>
    </g>
</svg>
