<svg width="106" height="92" viewBox="0 0 106 92" fill="none" xmlns="http://www.w3.org/2000/svg">
<path d="M104.927 14.2768C96.3877 3.63047 84.6872 -1.1675 78.7928 3.56014C72.8984 8.28778 75.0421 20.7508 83.5811 31.3971C88.3665 37.3636 94.2687 40.5781 96.7639 38.5768C99.2591 36.5755 97.4024 30.1163 92.617 24.1499C84.078 13.5035 72.3775 8.70556 66.4831 13.4332C60.5887 18.1609 62.7323 30.6239 71.2713 41.2703C76.0567 47.2368 81.9589 50.4512 84.4542 48.4499C86.9494 46.4486 85.0927 39.9894 80.3073 34.0229C71.7683 23.3766 60.0385 18.6022 54.108 23.3588C48.1775 28.1154 50.2917 40.602 58.8307 51.2483C63.6161 57.2148 69.5183 60.4292 72.0136 58.4279C74.5089 56.4266 72.6519 49.9676 67.8665 44.0011C59.3275 33.3548 47.6272 28.5567 41.7328 33.2844C35.8383 38.012 37.9823 50.4748 46.5212 61.1212C51.3067 67.0877 57.2085 70.3024 59.7038 68.301C62.1991 66.2997 60.3425 59.8405 55.557 53.874C47.0181 43.2276 35.3174 38.4298 29.423 43.1575C23.5285 47.8852 25.6725 60.348 34.2114 70.9943C38.9969 76.9608 44.8991 80.1752 47.394 78.1742C49.8893 76.1728 48.0327 69.7136 43.2472 63.7471C34.7083 53.1008 23.0076 48.303 17.1136 53.0303C11.2191 57.758 13.3627 70.2211 21.9016 80.8675C26.6871 86.8339 32.5893 90.0484 35.0846 88.047C37.5795 86.046 35.7229 79.5867 30.9374 73.6203C22.3985 62.9739 10.6689 58.1993 4.73836 62.9559C-1.19216 67.7125 0.922091 80.1992 9.46105 90.8455" stroke="#837EBF" stroke-width="2" stroke-linecap="round"/>
</svg>
