<svg width="500" height="473" viewBox="0 0 500 473" fill="none" xmlns="http://www.w3.org/2000/svg">
<path d="M380.23 54.3571C423.381 80.7832 460.648 130.286 482.223 193.932C503.799 257.95 509.683 335.74 477.32 378.915C444.956 422.462 374.673 430.65 314.523 444.794C254.047 458.938 203.377 479.036 153.688 470.104C103.673 461.171 54.3106 423.206 27.5048 370.354C0.698938 317.502 -4.20457 249.762 2.98724 181.277C10.179 112.42 28.8124 42.8189 70.0018 15.6484C111.191 -11.15 174.61 4.85458 231.164 14.5318C287.717 24.2089 336.752 27.9309 380.23 54.3571Z" fill="#00CAA5"/>
<path d="M380.23 54.3571C423.381 80.7832 460.648 130.286 482.223 193.932C503.799 257.95 509.683 335.74 477.32 378.915C444.956 422.462 374.673 430.65 314.523 444.794C254.047 458.938 203.377 479.036 153.688 470.104C103.673 461.171 54.3106 423.206 27.5048 370.354C0.698938 317.502 -4.20457 249.762 2.98724 181.277C10.179 112.42 28.8124 42.8189 70.0018 15.6484C111.191 -11.15 174.61 4.85458 231.164 14.5318C287.717 24.2089 336.752 27.9309 380.23 54.3571Z" fill="#00CAA5"/>
</svg>
