<?xml version="1.0" standalone="no"?>
<svg viewBox="0 0 200 200" xmlns="http://www.w3.org/2000/svg">
  <path fill="#837EBF" d="M38.3,-67.9C47.4,-61,51.1,-46.3,57.1,-33.7C63.1,-21.1,71.5,-10.5,73,0.8C74.4,12.2,69,24.5,61.9,35.3C54.8,46,46.1,55.4,35.5,65.3C24.9,75.2,12.5,85.5,-0.5,86.3C-13.4,87.1,-26.8,78.4,-40.6,70.4C-54.5,62.4,-68.8,55.2,-78,43.6C-87.1,32,-91.1,16,-89.7,0.8C-88.3,-14.4,-81.5,-28.7,-71.2,-38.4C-60.9,-48,-47.2,-53,-34.7,-58C-22.3,-62.9,-11.1,-68,1.7,-71C14.6,-73.9,29.1,-74.8,38.3,-67.9Z" transform="translate(100 100)" />
</svg>
