<svg width="42" height="42" viewBox="0 0 42 42" fill="none" xmlns="http://www.w3.org/2000/svg">
<g clip-path="url(#clip0_239_283)">
<path d="M22.7607 12.1989C25.6786 10.7637 27.1376 10.0461 28.111 10.7194C29.0844 11.3927 28.9276 13.011 28.6139 16.2477L28.5328 17.085C28.4437 18.0048 28.399 18.4646 28.5361 18.8832C28.6731 19.3018 28.9761 19.6315 29.5822 20.2912L30.1341 20.8917C32.2668 23.2129 33.3333 24.3735 32.9651 25.5488C32.5968 26.7242 31.0377 27.1359 27.9195 27.9593L27.1128 28.1723C26.2267 28.4063 25.7836 28.5232 25.4283 28.8014C25.073 29.0796 24.8457 29.4873 24.3911 30.3028L23.9772 31.0452C22.3774 33.915 21.5776 35.3499 20.3766 35.403C19.1756 35.4561 18.3688 34.0922 16.7552 31.3645L16.3379 30.6587C15.8794 29.8836 15.6502 29.496 15.2936 29.2494C14.9369 29.0027 14.4934 28.9249 13.6064 28.7693L12.7988 28.6277C9.67725 28.0801 8.11645 27.8063 7.74246 26.6638C7.36846 25.5213 8.42897 24.2666 10.55 21.7574L11.0987 21.1083C11.7014 20.3952 12.0028 20.0387 12.1377 19.6081C12.2726 19.1775 12.2258 18.7217 12.1322 17.81L12.0469 16.98C11.7174 13.7718 11.5527 12.1677 12.5226 11.4085C13.4925 10.6493 14.9546 11.2378 17.879 12.4147L18.6356 12.7192C19.4666 13.0537 19.8821 13.2209 20.322 13.2014C20.762 13.182 21.1766 12.9781 22.0058 12.5702L22.7607 12.1989Z" stroke="#837EBF" stroke-width="2"/>
</g>
<defs>
<clipPath id="clip0_239_283">
<rect width="30" height="30" fill="white" transform="translate(17.1969 0.130371) rotate(34.6722)"/>
</clipPath>
</defs>
</svg>
