<svg width="168" height="24" viewBox="0 0 168 24" fill="none" xmlns="http://www.w3.org/2000/svg">
<path d="M9.15316 5.40838C10.4198 3.13613 11.0531 2 12 2C12.9469 2 13.5802 3.13612 14.8468 5.40837L15.1745 5.99623C15.5345 6.64193 15.7144 6.96479 15.9951 7.17781C16.2757 7.39083 16.6251 7.4699 17.3241 7.62805L17.9605 7.77203C20.4201 8.32856 21.65 8.60682 21.9426 9.54773C22.2352 10.4886 21.3968 11.4691 19.7199 13.4299L19.2861 13.9372C18.8096 14.4944 18.5713 14.773 18.4641 15.1177C18.357 15.4624 18.393 15.8341 18.465 16.5776L18.5306 17.2544C18.7841 19.8706 18.9109 21.1787 18.1449 21.7602C17.3788 22.3417 16.2273 21.8115 13.9243 20.7512L13.3285 20.4768C12.6741 20.1755 12.3469 20.0248 12 20.0248C11.6531 20.0248 11.3259 20.1755 10.6715 20.4768L10.0757 20.7512C7.77268 21.8115 6.62118 22.3417 5.85515 21.7602C5.08912 21.1787 5.21588 19.8706 5.4694 17.2544L5.53498 16.5776C5.60703 15.8341 5.64305 15.4624 5.53586 15.1177C5.42868 14.773 5.19043 14.4944 4.71392 13.9372L4.2801 13.4299C2.60325 11.4691 1.76482 10.4886 2.05742 9.54773C2.35002 8.60682 3.57986 8.32856 6.03954 7.77203L6.67589 7.62805C7.37485 7.4699 7.72433 7.39083 8.00494 7.17781C8.28555 6.96479 8.46553 6.64194 8.82547 5.99623L9.15316 5.40838Z" fill="#837EBF"/>
<path d="M45.1532 5.45975C46.4198 3.15325 47.0531 2 48 2C48.9469 2 49.5802 3.15324 50.8468 5.45974L51.1745 6.05646C51.5345 6.71189 51.7144 7.03962 51.9951 7.25585C52.2757 7.47208 52.6251 7.55234 53.3241 7.71288L53.9605 7.85903C56.4201 8.42395 57.65 8.7064 57.9426 9.66149C58.2352 10.6165 57.3968 11.6118 55.7199 13.6022L55.2861 14.1171C54.8096 14.6827 54.5713 14.9655 54.4641 15.3154C54.357 15.6653 54.393 16.0426 54.465 16.7973L54.5306 17.4843C54.7841 20.1399 54.9109 21.4678 54.1449 22.058C53.3788 22.6483 52.2273 22.1101 49.9243 21.0338L49.3285 20.7553C48.6741 20.4494 48.3469 20.2965 48 20.2965C47.6531 20.2965 47.3259 20.4494 46.6715 20.7553L46.0757 21.0338C43.7727 22.1101 42.6212 22.6483 41.8552 22.058C41.0891 21.4678 41.2159 20.1399 41.4694 17.4843L41.535 16.7973C41.607 16.0426 41.6431 15.6653 41.5359 15.3154C41.4287 14.9655 41.1904 14.6827 40.7139 14.1171L40.2801 13.6022C38.6033 11.6118 37.7648 10.6165 38.0574 9.66149C38.35 8.7064 39.5799 8.42395 42.0395 7.85903L42.6759 7.71288C43.3749 7.55234 43.7243 7.47208 44.0049 7.25585C44.2856 7.03962 44.4655 6.7119 44.8255 6.05646L45.1532 5.45975Z" fill="#837EBF"/>
<path d="M81.1532 5.40838C82.4198 3.13613 83.0531 2 84 2C84.9469 2 85.5802 3.13612 86.8468 5.40837L87.1745 5.99623C87.5345 6.64193 87.7144 6.96479 87.9951 7.17781C88.2757 7.39083 88.6251 7.4699 89.3241 7.62805L89.9605 7.77203C92.4201 8.32856 93.65 8.60682 93.9426 9.54773C94.2352 10.4886 93.3968 11.4691 91.7199 13.4299L91.2861 13.9372C90.8096 14.4944 90.5713 14.773 90.4641 15.1177C90.357 15.4624 90.393 15.8341 90.465 16.5776L90.5306 17.2544C90.7841 19.8706 90.9109 21.1787 90.1449 21.7602C89.3788 22.3417 88.2273 21.8115 85.9243 20.7512L85.3285 20.4768C84.6741 20.1755 84.3469 20.0248 84 20.0248C83.6531 20.0248 83.3259 20.1755 82.6715 20.4768L82.0757 20.7512C79.7727 21.8115 78.6212 22.3417 77.8552 21.7602C77.0891 21.1787 77.2159 19.8706 77.4694 17.2544L77.535 16.5776C77.607 15.8341 77.6431 15.4624 77.5359 15.1177C77.4287 14.773 77.1904 14.4944 76.7139 13.9372L76.2801 13.4299C74.6033 11.4691 73.7648 10.4886 74.0574 9.54773C74.35 8.60682 75.5799 8.32856 78.0395 7.77203L78.6759 7.62805C79.3749 7.4699 79.7243 7.39083 80.0049 7.17781C80.2856 6.96479 80.4655 6.64194 80.8255 5.99623L81.1532 5.40838Z" fill="#837EBF"/>
<path d="M117.153 5.40838C118.42 3.13613 119.053 2 120 2C120.947 2 121.58 3.13612 122.847 5.40837L123.175 5.99623C123.535 6.64193 123.714 6.96479 123.995 7.17781C124.276 7.39083 124.625 7.4699 125.324 7.62805L125.961 7.77203C128.42 8.32856 129.65 8.60682 129.943 9.54773C130.235 10.4886 129.397 11.4691 127.72 13.4299L127.286 13.9372C126.81 14.4944 126.571 14.773 126.464 15.1177C126.357 15.4624 126.393 15.8341 126.465 16.5776L126.531 17.2544C126.784 19.8706 126.911 21.1787 126.145 21.7602C125.379 22.3417 124.227 21.8115 121.924 20.7512L121.329 20.4768C120.674 20.1755 120.347 20.0248 120 20.0248C119.653 20.0248 119.326 20.1755 118.672 20.4768L118.076 20.7512C115.773 21.8115 114.621 22.3417 113.855 21.7602C113.089 21.1787 113.216 19.8706 113.469 17.2544L113.535 16.5776C113.607 15.8341 113.643 15.4624 113.536 15.1177C113.429 14.773 113.19 14.4944 112.714 13.9372L112.28 13.4299C110.603 11.4691 109.765 10.4886 110.057 9.54773C110.35 8.60682 111.58 8.32856 114.04 7.77203L114.676 7.62805C115.375 7.4699 115.724 7.39083 116.005 7.17781C116.286 6.96479 116.466 6.64194 116.825 5.99623L117.153 5.40838Z" fill="#837EBF"/>
<path d="M153.153 5.40838C154.42 3.13613 155.053 2 156 2C156.947 2 157.58 3.13612 158.847 5.40837L159.175 5.99623C159.535 6.64193 159.714 6.96479 159.995 7.17781C160.276 7.39083 160.625 7.4699 161.324 7.62805L161.961 7.77203C164.42 8.32856 165.65 8.60682 165.943 9.54773C166.235 10.4886 165.397 11.4691 163.72 13.4299L163.286 13.9372C162.81 14.4944 162.571 14.773 162.464 15.1177C162.357 15.4624 162.393 15.8341 162.465 16.5776L162.531 17.2544C162.784 19.8706 162.911 21.1787 162.145 21.7602C161.379 22.3417 160.227 21.8115 157.924 20.7512L157.329 20.4768C156.674 20.1755 156.347 20.0248 156 20.0248C155.653 20.0248 155.326 20.1755 154.672 20.4768L154.076 20.7512C151.773 21.8115 150.621 22.3417 149.855 21.7602C149.089 21.1787 149.216 19.8706 149.469 17.2544L149.535 16.5776C149.607 15.8341 149.643 15.4624 149.536 15.1177C149.429 14.773 149.19 14.4944 148.714 13.9372L148.28 13.4299C146.603 11.4691 145.765 10.4886 146.057 9.54773C146.35 8.60682 147.58 8.32856 150.04 7.77203L150.676 7.62805C151.375 7.4699 151.724 7.39083 152.005 7.17781C152.286 6.96479 152.466 6.64194 152.825 5.99623L153.153 5.40838Z" fill="#837EBF"/>
</svg>
