<?xml version="1.0" encoding="UTF-8"?>
<!DOCTYPE svg PUBLIC "-//W3C//DTD SVG 1.1//EN" "http://www.w3.org/Graphics/SVG/1.1/DTD/svg11.dtd">
<svg xmlns="http://www.w3.org/2000/svg" version="1.1" width="2048px" height="2048px" style="shape-rendering:geometricPrecision; text-rendering:geometricPrecision; image-rendering:optimizeQuality; fill-rule:evenodd; clip-rule:evenodd" xmlns:xlink="http://www.w3.org/1999/xlink">
<g><path style="opacity:0.985" fill="#00d2a1" d="M 632.5,293.5 C 711.908,292.463 789.908,305.963 866.5,334C 928.381,360.059 980.714,398.892 1023.5,450.5C 1085.88,376.438 1164.88,329.604 1260.5,310C 1332.28,293.929 1402.78,290.096 1472,298.5C 1521.81,307.064 1570.64,319.564 1618.5,336C 1779.35,398.847 1891.85,510.68 1956,671.5C 1975.3,723.408 1990.97,776.408 2003,830.5C 2009.34,861.784 2012.17,892.95 2011.5,924C 2006.46,960.89 1985.8,980.39 1949.5,982.5C 1928.28,979.887 1913.28,968.887 1904.5,949.5C 1903.06,943.24 1901.39,937.073 1899.5,931C 1900.11,924.025 1901.28,917.192 1903,910.5C 1903.34,889.849 1901.34,869.182 1897,848.5C 1883.86,788.07 1864.52,729.736 1839,673.5C 1776.4,547.582 1677.57,464.748 1542.5,425C 1501.77,413.343 1460.6,405.509 1419,401.5C 1369.21,400.487 1318.37,406.32 1266.5,419C 1196.52,436.697 1140.35,474.531 1098,532.5C 1090,548.523 1081,563.857 1071,578.5C 1061.01,587.001 1049.51,592.334 1036.5,594.5C 1027.83,593.167 1019.17,593.167 1010.5,594.5C 990.62,591.822 975.786,581.822 966,564.5C 949.799,529.124 926.299,499.457 895.5,475.5C 856.814,444.333 812.814,424.166 763.5,415C 712.067,404.068 661.567,399.901 612,402.5C 550.974,410.464 492.14,426.297 435.5,450C 313.921,507.922 230.421,600.422 185,727.5C 171,767.167 159.334,807.5 150,848.5C 145.658,869.182 143.658,889.849 144,910.5C 149.103,925.472 147.603,940.472 139.5,955.5C 122.354,980.16 99.6875,987.66 71.5,978C 56.4847,970.65 45.9847,959.15 40,943.5C 38.2535,937.017 36.7535,930.517 35.5,924C 34.8914,885.34 39.3914,846.84 49,808.5C 65.229,735.142 90.5623,665.142 125,598.5C 184.648,490.182 270.148,409.348 381.5,356C 451.577,324.734 524.577,304.567 600.5,295.5C 602.278,295.569 604.111,295.903 606,296.5C 607.333,295.833 608.667,295.167 610,294.5C 613,294.833 616,295.167 619,295.5C 623.601,294.858 628.101,294.191 632.5,293.5 Z"/></g>
<g><path style="opacity:0.986" fill="#00d2a1" d="M 661.5,736.5 C 691.583,737.021 720.249,744.187 747.5,758C 801.308,791.903 823.641,839.903 814.5,902C 805.627,950.937 786.627,995.77 757.5,1036.5C 723.945,1082.9 682.945,1121.06 634.5,1151C 599.049,1172.4 562.382,1190.4 524.5,1205C 487.822,1218.02 450.488,1225.52 412.5,1227.5C 414.805,1235.12 417.972,1242.45 422,1249.5C 434.896,1270.4 450.729,1288.9 469.5,1305C 497.096,1328.14 527.096,1347.81 559.5,1364C 604.649,1386.4 650.316,1408.07 696.5,1429C 728.543,1444.52 760.21,1460.86 791.5,1478C 836.488,1504.96 880.488,1533.62 923.5,1564C 935.461,1572.9 946.961,1582.4 958,1592.5C 961.228,1527.45 963.395,1462.11 964.5,1396.5C 964.294,1393.95 963.961,1391.45 963.5,1389C 965.232,1362.62 967.565,1336.28 970.5,1310C 973.181,1290.1 983.681,1276.27 1002,1268.5C 1027.08,1258.31 1048.58,1263.64 1066.5,1284.5C 1072.28,1292.31 1075.62,1300.81 1076.5,1310C 1079.44,1336.28 1081.77,1362.62 1083.5,1389C 1083.04,1391.45 1082.71,1393.95 1082.5,1396.5C 1083.6,1462.11 1085.77,1527.45 1089,1592.5C 1113.33,1571.5 1138.83,1552 1165.5,1534C 1195.47,1515.34 1225.47,1496.68 1255.5,1478C 1308.19,1449.76 1361.86,1423.43 1416.5,1399C 1440.11,1387.03 1463.77,1375.36 1487.5,1364C 1519.9,1347.81 1549.9,1328.14 1577.5,1305C 1596.27,1288.9 1612.1,1270.4 1625,1249.5C 1629.03,1242.45 1632.19,1235.12 1634.5,1227.5C 1576.76,1223.9 1522.1,1209.07 1470.5,1183C 1433.35,1164.6 1398.35,1142.94 1365.5,1118C 1319.6,1079.77 1283.43,1033.94 1257,980.5C 1243.99,952.494 1235.32,923.494 1231,893.5C 1226.07,834.856 1248.91,789.689 1299.5,758C 1343.91,735.878 1389.58,731.212 1436.5,744C 1541.58,775.996 1625.08,837.829 1687,929.5C 1721.27,986.159 1743.11,1047.16 1752.5,1112.5C 1792.77,1107.68 1831.77,1097.85 1869.5,1083C 1893.09,1074.34 1914.25,1079.18 1933,1097.5C 1948.21,1118.44 1949.87,1139.77 1938,1161.5C 1929.36,1174.23 1917.53,1182.07 1902.5,1185C 1852.56,1204.15 1801.23,1216.32 1748.5,1221.5C 1739.21,1267.61 1719.71,1308.61 1690,1344.5C 1655.12,1383.82 1614.95,1416.32 1569.5,1442C 1511.97,1472.76 1453.3,1501.43 1393.5,1528C 1321.61,1562.77 1253.28,1603.44 1188.5,1650C 1159.36,1672.14 1133.2,1697.3 1110,1725.5C 1093.05,1752.72 1082.39,1781.72 1078,1812.5C 1073.2,1833.3 1060.7,1847.13 1040.5,1854C 1010.93,1860.79 988.43,1851.29 973,1825.5C 970.548,1818.48 968.715,1811.31 967.5,1804C 967.345,1797.16 965.678,1790.49 962.5,1784C 957.568,1763.26 949.068,1743.76 937,1725.5C 913.804,1697.3 887.637,1672.14 858.5,1650C 793.722,1603.44 725.389,1562.77 653.5,1528C 593.697,1501.43 535.03,1472.76 477.5,1442C 432.051,1416.32 391.884,1383.82 357,1344.5C 327.286,1308.61 307.786,1267.61 298.5,1221.5C 257.71,1217.03 217.376,1208.86 177.5,1197C 161.219,1190.91 144.885,1185.24 128.5,1180C 104.02,1163.74 95.8536,1141.9 104,1114.5C 115.193,1089.97 133.693,1077.97 159.5,1078.5C 165.612,1079.48 171.612,1080.98 177.5,1083C 215.226,1097.85 254.226,1107.68 294.5,1112.5C 317.304,962.286 394.971,850.453 527.5,777C 550.187,765.801 573.187,756.134 596.5,748C 618.07,741.578 639.736,737.745 661.5,736.5 Z M 660.5,844.5 C 671.961,844.065 683.294,846.565 694.5,852C 703.624,857.924 708.624,866.257 709.5,877C 705.464,903.265 696.964,928.098 684,951.5C 652.495,1002.67 610.328,1042.51 557.5,1071C 527.663,1088.16 496.163,1101.66 463,1111.5C 462.667,1111.17 462.333,1110.83 462,1110.5C 443.069,1116.2 423.735,1119.53 404,1120.5C 413.779,1042.45 447.945,976.622 506.5,923C 543.224,889.958 585.224,865.625 632.5,850C 641.873,847.644 651.206,845.811 660.5,844.5 Z M 1378.5,844.5 C 1400.3,845.712 1421.63,850.879 1442.5,860C 1554.92,910.099 1622.25,995.766 1644.5,1117C 1644.62,1118.28 1644.12,1119.45 1643,1120.5C 1611.63,1118.42 1581.46,1111.92 1552.5,1101C 1515.56,1085.7 1480.56,1067.03 1447.5,1045C 1416.46,1020.96 1389.96,992.793 1368,960.5C 1355.21,938.149 1345.55,914.482 1339,889.5C 1334.19,871.608 1340.02,858.441 1356.5,850C 1363.74,847.19 1371.07,845.357 1378.5,844.5 Z"/></g>
</svg>
