<?xml version="1.0" encoding="UTF-8" standalone="no"?>
<!DOCTYPE svg PUBLIC "-//W3C//DTD SVG 1.1//EN" "http://www.w3.org/Graphics/SVG/1.1/DTD/svg11.dtd">
<svg width="100%" height="100%" viewBox="0 0 300 139" version="1.1" xmlns="http://www.w3.org/2000/svg" xmlns:xlink="http://www.w3.org/1999/xlink" xml:space="preserve" xmlns:serif="http://www.serif.com/" style="fill-rule:evenodd;clip-rule:evenodd;stroke-linejoin:round;stroke-miterlimit:2;">
    <g transform="matrix(0.1,0,0,-0.1,0,139)">
        <path d="M2475,1354C2414,1328 2387,1321 2360,1325C2339,1329 2289,1322 2237,1310C2143,1288 2080,1290 2026,1317C1971,1345 1965,1291 2016,1231L2042,1200L2015,1200C2001,1200 1968,1205 1943,1212C1903,1222 1896,1221 1888,1206C1873,1180 1814,1191 1635,1253C1486,1305 1485,1305 1360,1305C1255,1305 1224,1301 1165,1281C1069,1249 998,1210 1004,1193C1007,1186 1001,1171 990,1160C970,1140 970,1140 917,1179C829,1244 757,1275 748,1250C746,1243 728,1243 692,1250C607,1266 518,1249 408,1196C327,1157 303,1150 252,1150C192,1150 164,1136 191,1119C220,1101 120,1110 65,1131C34,1143 7,1150 4,1147C-13,1130 49,1047 122,989C149,968 165,950 157,947C133,938 166,906 231,872C273,851 318,837 360,832C409,826 420,822 403,816C359,801 384,780 445,780C501,780 579,802 656,840C697,860 730,872 730,868C730,845 813,878 877,927C919,958 920,940 882,879C844,820 775,762 725,748C656,728 651,720 622,537C601,404 599,366 608,345C621,316 655,312 699,335C732,352 744,379 760,476C775,569 794,598 852,620C885,632 900,634 900,627C900,620 933,593 972,565C1051,510 1199,365 1261,283C1305,224 1325,218 1378,250C1406,267 1410,275 1410,312C1410,343 1418,367 1441,400C1491,474 1510,517 1510,555C1510,597 1529,620 1562,619C1589,619 1692,569 1697,555C1699,549 1687,537 1671,527C1633,505 1561,420 1515,345C1490,303 1480,275 1480,244C1480,196 1467,181 1417,173C1385,168 1382,170 1371,201C1363,224 1357,231 1349,223C1342,216 1343,201 1354,175C1369,140 1373,138 1403,143C1481,156 1519,193 1506,244C1503,255 1514,289 1532,322C1566,386 1674,510 1696,510C1734,510 1745,387 1720,238C1708,168 1708,167 1734,143C1750,129 1760,108 1760,92C1760,13 1862,-20 1973,22C1997,31 2000,37 2000,80C2000,135 1981,158 1926,167C1893,172 1890,175 1894,199C1897,213 1904,259 1910,300C1925,395 1969,553 1984,562C1990,566 2003,567 2012,564C2022,561 2040,566 2052,574C2082,595 2090,594 2090,570C2090,546 2112,544 2131,566C2138,575 2161,589 2182,597C2203,605 2236,631 2256,654C2289,692 2291,693 2285,668C2274,626 2293,633 2346,690C2412,761 2502,802 2694,850C2781,872 2864,897 2877,905C2916,931 2900,945 2838,942C2807,940 2780,943 2776,948C2773,954 2799,959 2844,962C2931,966 2952,980 2974,1049C3017,1183 3005,1211 2913,1199C2828,1187 2789,1197 2734,1242C2708,1264 2678,1286 2667,1291C2650,1300 2650,1303 2664,1313C2692,1335 2666,1355 2612,1354C2569,1354 2563,1356 2568,1372C2574,1396 2569,1395 2475,1354ZM2524,1336C2520,1324 2530,1323 2582,1326C2619,1328 2635,1327 2621,1322C2586,1311 2584,1294 2617,1287C2632,1284 2673,1259 2708,1231C2783,1171 2799,1166 2897,1173C2980,1179 2984,1176 2971,1120L2963,1085L2955,1113C2951,1128 2944,1140 2939,1140C2925,1140 2928,1106 2944,1085C2965,1056 2937,1004 2892,989C2858,978 2756,981 2711,996C2689,1002 2687,1001 2693,979C2697,963 2693,949 2678,932C2660,914 2658,906 2667,891C2678,874 2671,871 2594,850C2481,821 2401,779 2351,725C2312,682 2311,682 2317,711C2320,727 2318,740 2313,740C2308,740 2280,715 2250,685C2220,655 2190,630 2184,630C2177,630 2158,618 2141,604C2111,579 2110,579 2110,599C2110,624 2099,625 2059,605C2043,596 2025,592 2019,595C2014,599 2003,596 1995,590C1983,580 1980,580 1980,591C1980,598 2003,625 2032,652C2060,678 2081,703 2077,706C2074,710 2048,696 2021,676C1976,643 1968,631 1951,572C1907,422 1891,358 1879,271C1865,172 1870,148 1906,142C1969,133 1970,132 1970,86L1970,42L1920,31C1879,22 1863,23 1831,36C1798,49 1791,57 1786,89C1783,110 1771,139 1759,153C1739,179 1739,184 1750,275C1765,392 1760,482 1737,508C1719,528 1714,570 1730,570C1753,570 1772,619 1765,660C1756,716 1740,710 1740,651C1740,623 1735,598 1729,595C1713,584 1632,618 1560,666C1452,737 1456,732 1480,773C1506,817 1516,901 1501,955C1487,1007 1403,1140 1384,1140C1364,1140 1366,1136 1404,1083C1486,967 1505,875 1463,793C1435,739 1347,693 1241,678C1196,672 1160,663 1160,658C1160,633 1193,577 1250,505C1342,389 1390,319 1390,299C1390,278 1338,247 1318,255C1310,258 1295,275 1285,293C1255,344 1093,506 1016,562C977,591 941,617 936,621C932,625 946,646 968,668C1026,726 1030,756 986,827C967,859 946,905 940,930C922,1003 919,1008 910,985C906,974 878,951 849,933C784,895 754,882 764,898C778,921 747,921 711,897C659,862 609,841 525,819C435,795 418,795 450,820C480,843 473,846 381,854C340,858 292,872 248,891C187,920 182,924 198,937C214,950 213,952 190,968C126,1013 70,1061 50,1090C28,1120 28,1122 47,1111C107,1079 240,1075 240,1105C240,1112 258,1120 283,1123C307,1126 369,1150 422,1175C535,1230 622,1242 727,1217C770,1207 792,1206 799,1213C807,1221 831,1209 880,1176C946,1130 962,1109 940,1095C926,1086 928,1070 943,1070C950,1070 964,1083 973,1100C983,1116 1009,1144 1030,1161C1051,1178 1067,1197 1064,1204C1060,1215 1135,1248 1220,1271C1245,1278 1310,1284 1365,1283C1460,1283 1473,1280 1630,1227C1748,1186 1810,1170 1847,1170C1875,1170 1901,1174 1904,1179C1914,1195 2053,1180 2093,1159C2148,1129 2223,1124 2300,1146C2336,1156 2384,1164 2408,1164C2465,1165 2456,1180 2384,1207C2308,1234 2242,1244 2180,1235C2102,1224 2121,1210 2213,1210C2258,1210 2313,1205 2335,1198L2375,1187L2325,1174C2265,1158 2162,1156 2123,1171C2089,1184 2033,1235 2014,1273C1997,1305 1997,1304 2043,1285C2089,1266 2169,1266 2240,1285C2304,1302 2361,1304 2409,1290C2446,1280 2464,1285 2441,1300C2431,1306 2439,1313 2471,1328C2525,1353 2531,1354 2524,1336ZM2732,938C2712,918 2719,906 2740,925C2751,935 2760,938 2760,932C2760,914 2712,887 2693,894C2679,900 2681,905 2705,930C2721,946 2736,958 2739,955C2741,952 2738,944 2732,938ZM2860,922C2860,918 2817,903 2780,895C2746,888 2746,888 2762,906C2773,919 2792,925 2819,925C2842,925 2860,924 2860,922ZM986,735C978,705 940,680 850,645C770,614 757,595 734,474C715,374 700,350 658,350C633,350 630,353 630,384C630,420 667,670 675,692C678,699 704,714 732,724C787,743 881,824 906,873L921,901L957,831C983,780 991,754 986,735ZM1499,680C1540,649 1547,640 1529,642C1514,644 1506,640 1508,633C1509,626 1501,620 1489,620C1473,620 1470,616 1475,603C1493,560 1491,539 1463,488C1411,395 1395,370 1389,373C1381,375 1252,542 1215,596C1182,644 1183,650 1224,650C1262,650 1371,682 1410,705C1424,713 1437,719 1440,720C1443,720 1470,702 1499,680Z" style="fill:white;fill-rule:nonzero;"/>
        <path d="M2646,1205C2632,1192 2620,1170 2620,1157C2620,1128 2652,1097 2677,1102C2691,1105 2694,1114 2693,1145C2691,1167 2690,1195 2689,1208C2688,1236 2679,1236 2646,1205ZM2674,1164C2683,1139 2681,1130 2666,1130C2647,1130 2637,1147 2644,1165C2651,1185 2666,1184 2674,1164Z" style="fill:white;fill-rule:nonzero;"/>
        <path d="M2993,1305C2993,1267 2995,1252 2997,1273C2999,1293 2999,1325 2997,1343C2995,1360 2993,1344 2993,1305Z" style="fill:white;fill-rule:nonzero;"/>
    </g>
</svg>
